<svg preserveAspectRatio="none" overflow="visible" style="display: block;" width="30" height="28" viewBox="0 0 30 28" fill="none" xmlns="http://www.w3.org/2000/svg">
<g id="Icon">
<path id="Vector" d="M28.3442 22.6667L17.9094 4.00001C17.6819 3.58962 17.3519 3.24826 16.9532 3.01077C16.5545 2.77328 16.1013 2.64815 15.6398 2.64815C15.1784 2.64815 14.7252 2.77328 14.3265 3.01077C13.9278 3.24826 13.5978 3.58962 13.3703 4.00001L2.9355 22.6667C2.70552 23.0738 2.58493 23.5359 2.58594 24.006C2.58696 24.4762 2.70956 24.9377 2.9413 25.3438C3.17304 25.7499 3.50569 26.0861 3.90553 26.3184C4.30538 26.5508 4.7582 26.6709 5.21811 26.6667H26.0877C26.5454 26.6662 26.9949 26.5426 27.3911 26.3084C27.7873 26.0741 28.1162 25.7375 28.3449 25.3322C28.5735 24.9269 28.6938 24.4672 28.6937 23.9993C28.6936 23.5315 28.573 23.0719 28.3442 22.6667Z" stroke="white" stroke-width="2.6087" stroke-linecap="round" stroke-linejoin="round"/>
<path id="Vector_2" d="M15.6523 10.6667V16" stroke="white" stroke-width="2.6087" stroke-linecap="round" stroke-linejoin="round"/>
<path id="Vector_3" d="M15.6523 21.3333H15.6643" stroke="white" stroke-width="2.6087" stroke-linecap="round" stroke-linejoin="round"/>
</g>
</svg>
